<svg xmlns="http://www.w3.org/2000/svg" viewBox="0 0 12.4 13.9"><rect fill="#FFF" width="100%" height="100%"/><path d="M11.3 10.4c.7 1 1.1 2.2 1.1 3.6h-1c0-1-.2-1.9-.7-2.7-.4-.8-1.1-1.4-1.9-1.9-.7-.4-1.6-.6-2.6-.6s-1.8.2-2.6.6c-.8.5-1.4 1.1-1.9 1.9-.5.8-.7 1.7-.7 2.6H0c0-1.3.4-2.5 1.1-3.6.7-1 1.7-1.8 2.9-2.2-.7-.3-1.2-.9-1.6-1.5-.4-.7-.6-1.4-.6-2.2 0-.8.2-1.5.6-2.2.4-.7.9-1.2 1.6-1.6C4.7.2 5.4 0 6.2 0 7 0 7.7.2 8.4.6c.6.4 1.2.9 1.6 1.6.4.7.6 1.4.6 2.2 0 .8-.2 1.5-.6 2.2-.4.6-1 1.2-1.6 1.6 1.2.4 2.1 1.1 2.9 2.2zm-8-4.3c.3.5.7.9 1.2 1.2.5.3 1.1.5 1.7.5.6 0 1.2-.2 1.7-.5s.9-.7 1.2-1.2c.3-.6.5-1.1.5-1.7 0-.6-.2-1.2-.5-1.7s-.7-.9-1.2-1.2C7.4 1.2 6.8 1 6.2 1c-.6 0-1.2.2-1.7.5s-.9.7-1.2 1.2c-.3.5-.5 1.1-.5 1.7 0 .6.2 1.1.5 1.7z"/></svg>